<mxfile host="app.diagrams.net" modified="2023-10-05T17:40:02.307Z" agent="Mozilla/5.0 (Macintosh; Intel Mac OS X 10_15_7) AppleWebKit/537.36 (KHTML, like Gecko) Chrome/117.0.0.0 Safari/537.36" etag="qTBTuTZOk_YxkXtqNS3x" version="22.0.2" type="github">
  <diagram name="페이지-1" id="WyjascXnSW3ahyoUgBYH">
    <mxGraphModel dx="984" dy="766" grid="1" gridSize="10" guides="1" tooltips="1" connect="1" arrows="1" fold="1" page="1" pageScale="1" pageWidth="827" pageHeight="1169" math="0" shadow="0">
      <root>
        <mxCell id="0" />
        <mxCell id="1" parent="0" />
        <mxCell id="S0zC9xOgUq6jf5N83XIn-1" value="시작" style="ellipse;whiteSpace=wrap;html=1;" vertex="1" parent="1">
          <mxGeometry x="228" y="10" width="120" height="80" as="geometry" />
        </mxCell>
        <mxCell id="S0zC9xOgUq6jf5N83XIn-2" value="row : x, frow : 0&lt;br&gt;col : y, fcol : 0" style="rounded=0;whiteSpace=wrap;html=1;" vertex="1" parent="1">
          <mxGeometry x="228" y="120" width="120" height="60" as="geometry" />
        </mxCell>
        <mxCell id="S0zC9xOgUq6jf5N83XIn-3" value="" style="endArrow=classic;html=1;rounded=0;exitX=0.5;exitY=1;exitDx=0;exitDy=0;entryX=0.5;entryY=0;entryDx=0;entryDy=0;" edge="1" parent="1" source="S0zC9xOgUq6jf5N83XIn-1" target="S0zC9xOgUq6jf5N83XIn-2">
          <mxGeometry width="50" height="50" relative="1" as="geometry">
            <mxPoint x="264" y="420" as="sourcePoint" />
            <mxPoint x="294" y="120" as="targetPoint" />
          </mxGeometry>
        </mxCell>
        <mxCell id="S0zC9xOgUq6jf5N83XIn-4" value="" style="endArrow=classic;html=1;rounded=0;exitX=0.5;exitY=1;exitDx=0;exitDy=0;" edge="1" parent="1" source="S0zC9xOgUq6jf5N83XIn-2">
          <mxGeometry width="50" height="50" relative="1" as="geometry">
            <mxPoint x="288" y="179" as="sourcePoint" />
            <mxPoint x="288" y="210" as="targetPoint" />
          </mxGeometry>
        </mxCell>
        <mxCell id="S0zC9xOgUq6jf5N83XIn-7" value="" style="edgeStyle=orthogonalEdgeStyle;rounded=0;orthogonalLoop=1;jettySize=auto;html=1;" edge="1" parent="1" source="S0zC9xOgUq6jf5N83XIn-5">
          <mxGeometry relative="1" as="geometry">
            <mxPoint x="288" y="300" as="targetPoint" />
          </mxGeometry>
        </mxCell>
        <mxCell id="S0zC9xOgUq6jf5N83XIn-5" value="* 출력&lt;br&gt;frow에 1을 더한다" style="rounded=0;whiteSpace=wrap;html=1;" vertex="1" parent="1">
          <mxGeometry x="228" y="211" width="120" height="60" as="geometry" />
        </mxCell>
        <mxCell id="S0zC9xOgUq6jf5N83XIn-6" value="frow가 row 값보다 작은가?" style="rhombus;whiteSpace=wrap;html=1;rounded=0;" vertex="1" parent="1">
          <mxGeometry x="193" y="300" width="190" height="80" as="geometry" />
        </mxCell>
        <mxCell id="S0zC9xOgUq6jf5N83XIn-9" value="" style="endArrow=classic;html=1;rounded=0;exitX=0.5;exitY=1;exitDx=0;exitDy=0;" edge="1" parent="1">
          <mxGeometry width="50" height="50" relative="1" as="geometry">
            <mxPoint x="288" y="380" as="sourcePoint" />
            <mxPoint x="288" y="400" as="targetPoint" />
          </mxGeometry>
        </mxCell>
        <mxCell id="S0zC9xOgUq6jf5N83XIn-10" value="frow 0으로 초기화&lt;br&gt;줄바꿈&lt;br&gt;fcol에 1을 더한다" style="rounded=0;whiteSpace=wrap;html=1;" vertex="1" parent="1">
          <mxGeometry x="228" y="401" width="120" height="60" as="geometry" />
        </mxCell>
        <mxCell id="S0zC9xOgUq6jf5N83XIn-11" value="No" style="text;html=1;strokeColor=none;fillColor=none;align=center;verticalAlign=middle;whiteSpace=wrap;rounded=0;" vertex="1" parent="1">
          <mxGeometry x="219" y="367" width="60" height="30" as="geometry" />
        </mxCell>
        <mxCell id="S0zC9xOgUq6jf5N83XIn-12" value="Yes" style="text;html=1;strokeColor=none;fillColor=none;align=center;verticalAlign=middle;whiteSpace=wrap;rounded=0;" vertex="1" parent="1">
          <mxGeometry x="364" y="308" width="60" height="30" as="geometry" />
        </mxCell>
        <mxCell id="S0zC9xOgUq6jf5N83XIn-14" value="" style="endArrow=classic;html=1;rounded=0;entryX=1;entryY=0.5;entryDx=0;entryDy=0;exitX=1;exitY=0.5;exitDx=0;exitDy=0;" edge="1" parent="1" source="S0zC9xOgUq6jf5N83XIn-6" target="S0zC9xOgUq6jf5N83XIn-5">
          <mxGeometry width="50" height="50" relative="1" as="geometry">
            <mxPoint x="264" y="380" as="sourcePoint" />
            <mxPoint x="454" y="314" as="targetPoint" />
            <Array as="points">
              <mxPoint x="454" y="340" />
              <mxPoint x="454" y="241" />
            </Array>
          </mxGeometry>
        </mxCell>
        <mxCell id="S0zC9xOgUq6jf5N83XIn-16" value="fcol이 col 값보다 작은가?" style="rhombus;whiteSpace=wrap;html=1;rounded=0;" vertex="1" parent="1">
          <mxGeometry x="193" y="490" width="190" height="80" as="geometry" />
        </mxCell>
        <mxCell id="S0zC9xOgUq6jf5N83XIn-17" value="" style="endArrow=classic;html=1;rounded=0;exitX=0.5;exitY=1;exitDx=0;exitDy=0;entryX=0.5;entryY=0;entryDx=0;entryDy=0;" edge="1" parent="1" source="S0zC9xOgUq6jf5N83XIn-10" target="S0zC9xOgUq6jf5N83XIn-16">
          <mxGeometry width="50" height="50" relative="1" as="geometry">
            <mxPoint x="264" y="380" as="sourcePoint" />
            <mxPoint x="314" y="330" as="targetPoint" />
          </mxGeometry>
        </mxCell>
        <mxCell id="S0zC9xOgUq6jf5N83XIn-18" value="Yes" style="text;html=1;strokeColor=none;fillColor=none;align=center;verticalAlign=middle;whiteSpace=wrap;rounded=0;" vertex="1" parent="1">
          <mxGeometry x="144" y="498" width="60" height="30" as="geometry" />
        </mxCell>
        <mxCell id="S0zC9xOgUq6jf5N83XIn-19" value="" style="endArrow=classic;html=1;rounded=0;entryX=0;entryY=0.5;entryDx=0;entryDy=0;exitX=0;exitY=0.5;exitDx=0;exitDy=0;" edge="1" parent="1" source="S0zC9xOgUq6jf5N83XIn-16" target="S0zC9xOgUq6jf5N83XIn-5">
          <mxGeometry width="50" height="50" relative="1" as="geometry">
            <mxPoint x="89" y="528" as="sourcePoint" />
            <mxPoint x="54" y="429" as="targetPoint" />
            <Array as="points">
              <mxPoint x="64" y="530" />
              <mxPoint x="64" y="240" />
            </Array>
          </mxGeometry>
        </mxCell>
        <mxCell id="S0zC9xOgUq6jf5N83XIn-20" value="" style="endArrow=classic;html=1;rounded=0;exitX=0.5;exitY=1;exitDx=0;exitDy=0;" edge="1" parent="1" source="S0zC9xOgUq6jf5N83XIn-16">
          <mxGeometry width="50" height="50" relative="1" as="geometry">
            <mxPoint x="264" y="380" as="sourcePoint" />
            <mxPoint x="288" y="600" as="targetPoint" />
          </mxGeometry>
        </mxCell>
        <mxCell id="S0zC9xOgUq6jf5N83XIn-24" value="끝" style="ellipse;whiteSpace=wrap;html=1;" vertex="1" parent="1">
          <mxGeometry x="228" y="600" width="120" height="80" as="geometry" />
        </mxCell>
        <mxCell id="S0zC9xOgUq6jf5N83XIn-29" value="" style="edgeStyle=orthogonalEdgeStyle;rounded=0;orthogonalLoop=1;jettySize=auto;html=1;" edge="1" parent="1" source="S0zC9xOgUq6jf5N83XIn-25" target="S0zC9xOgUq6jf5N83XIn-28">
          <mxGeometry relative="1" as="geometry" />
        </mxCell>
        <mxCell id="S0zC9xOgUq6jf5N83XIn-25" value="시작" style="ellipse;whiteSpace=wrap;html=1;" vertex="1" parent="1">
          <mxGeometry x="572" y="523" width="120" height="80" as="geometry" />
        </mxCell>
        <mxCell id="S0zC9xOgUq6jf5N83XIn-32" value="" style="edgeStyle=orthogonalEdgeStyle;rounded=0;orthogonalLoop=1;jettySize=auto;html=1;" edge="1" parent="1" source="S0zC9xOgUq6jf5N83XIn-28">
          <mxGeometry relative="1" as="geometry">
            <mxPoint x="632" y="713" as="targetPoint" />
          </mxGeometry>
        </mxCell>
        <mxCell id="S0zC9xOgUq6jf5N83XIn-28" value="&lt;span style=&quot;color: rgb(0, 0, 0); font-family: Helvetica; font-size: 12px; font-style: normal; font-variant-ligatures: normal; font-variant-caps: normal; font-weight: 400; letter-spacing: normal; orphans: 2; text-align: center; text-indent: 0px; text-transform: none; widows: 2; word-spacing: 0px; -webkit-text-stroke-width: 0px; background-color: rgb(251, 251, 251); text-decoration-thickness: initial; text-decoration-style: initial; text-decoration-color: initial; float: none; display: inline !important;&quot;&gt;row : x, frow : 0&lt;/span&gt;&lt;br style=&quot;border-color: var(--border-color); color: rgb(0, 0, 0); font-family: Helvetica; font-size: 12px; font-style: normal; font-variant-ligatures: normal; font-variant-caps: normal; font-weight: 400; letter-spacing: normal; orphans: 2; text-align: center; text-indent: 0px; text-transform: none; widows: 2; word-spacing: 0px; -webkit-text-stroke-width: 0px; background-color: rgb(251, 251, 251); text-decoration-thickness: initial; text-decoration-style: initial; text-decoration-color: initial;&quot;&gt;&lt;span style=&quot;color: rgb(0, 0, 0); font-family: Helvetica; font-size: 12px; font-style: normal; font-variant-ligatures: normal; font-variant-caps: normal; font-weight: 400; letter-spacing: normal; orphans: 2; text-align: center; text-indent: 0px; text-transform: none; widows: 2; word-spacing: 0px; -webkit-text-stroke-width: 0px; background-color: rgb(251, 251, 251); text-decoration-thickness: initial; text-decoration-style: initial; text-decoration-color: initial; float: none; display: inline !important;&quot;&gt;col : y, fcol : 0&lt;/span&gt;&lt;br style=&quot;border-color: var(--border-color); color: rgb(0, 0, 0); font-family: Helvetica; font-size: 12px; font-style: normal; font-variant-ligatures: normal; font-variant-caps: normal; font-weight: 400; letter-spacing: normal; orphans: 2; text-align: center; text-indent: 0px; text-transform: none; widows: 2; word-spacing: 0px; -webkit-text-stroke-width: 0px; background-color: rgb(251, 251, 251); text-decoration-thickness: initial; text-decoration-style: initial; text-decoration-color: initial;&quot;&gt;&lt;span style=&quot;color: rgb(0, 0, 0); font-family: Helvetica; font-size: 12px; font-style: normal; font-variant-ligatures: normal; font-variant-caps: normal; font-weight: 400; letter-spacing: normal; orphans: 2; text-align: center; text-indent: 0px; text-transform: none; widows: 2; word-spacing: 0px; -webkit-text-stroke-width: 0px; background-color: rgb(251, 251, 251); text-decoration-thickness: initial; text-decoration-style: initial; text-decoration-color: initial; float: none; display: inline !important;&quot;&gt;stick : z, fstick : 0&lt;/span&gt;" style="whiteSpace=wrap;html=1;" vertex="1" parent="1">
          <mxGeometry x="572" y="628" width="120" height="60" as="geometry" />
        </mxCell>
        <mxCell id="S0zC9xOgUq6jf5N83XIn-33" value="frow가 row / 2 -1 보다 작은가?" style="rhombus;whiteSpace=wrap;html=1;" vertex="1" parent="1">
          <mxGeometry x="532" y="796" width="200" height="80" as="geometry" />
        </mxCell>
        <mxCell id="S0zC9xOgUq6jf5N83XIn-34" value="" style="endArrow=classic;html=1;rounded=0;exitX=0.5;exitY=1;exitDx=0;exitDy=0;" edge="1" parent="1" source="S0zC9xOgUq6jf5N83XIn-33">
          <mxGeometry width="50" height="50" relative="1" as="geometry">
            <mxPoint x="672" y="823" as="sourcePoint" />
            <mxPoint x="632" y="893" as="targetPoint" />
          </mxGeometry>
        </mxCell>
        <mxCell id="S0zC9xOgUq6jf5N83XIn-38" value="공백 출력&lt;br&gt;frow에 1을 더한다" style="rounded=0;whiteSpace=wrap;html=1;" vertex="1" parent="1">
          <mxGeometry x="572" y="714" width="120" height="60" as="geometry" />
        </mxCell>
        <mxCell id="S0zC9xOgUq6jf5N83XIn-39" value="" style="endArrow=classic;html=1;rounded=0;entryX=0.5;entryY=0;entryDx=0;entryDy=0;exitX=0.5;exitY=1;exitDx=0;exitDy=0;" edge="1" parent="1" source="S0zC9xOgUq6jf5N83XIn-38" target="S0zC9xOgUq6jf5N83XIn-33">
          <mxGeometry width="50" height="50" relative="1" as="geometry">
            <mxPoint x="452" y="613" as="sourcePoint" />
            <mxPoint x="502" y="563" as="targetPoint" />
          </mxGeometry>
        </mxCell>
        <mxCell id="S0zC9xOgUq6jf5N83XIn-40" value="" style="endArrow=classic;html=1;rounded=0;exitX=0;exitY=0.5;exitDx=0;exitDy=0;entryX=0;entryY=0.5;entryDx=0;entryDy=0;" edge="1" parent="1" source="S0zC9xOgUq6jf5N83XIn-33" target="S0zC9xOgUq6jf5N83XIn-38">
          <mxGeometry width="50" height="50" relative="1" as="geometry">
            <mxPoint x="452" y="683" as="sourcePoint" />
            <mxPoint x="502" y="633" as="targetPoint" />
            <Array as="points">
              <mxPoint x="492" y="836" />
              <mxPoint x="492" y="743" />
            </Array>
          </mxGeometry>
        </mxCell>
        <mxCell id="S0zC9xOgUq6jf5N83XIn-41" value="Yes" style="text;html=1;strokeColor=none;fillColor=none;align=center;verticalAlign=middle;whiteSpace=wrap;rounded=0;" vertex="1" parent="1">
          <mxGeometry x="502" y="796" width="60" height="30" as="geometry" />
        </mxCell>
        <mxCell id="S0zC9xOgUq6jf5N83XIn-42" value="No" style="text;html=1;strokeColor=none;fillColor=none;align=center;verticalAlign=middle;whiteSpace=wrap;rounded=0;" vertex="1" parent="1">
          <mxGeometry x="572" y="863" width="60" height="30" as="geometry" />
        </mxCell>
        <mxCell id="S0zC9xOgUq6jf5N83XIn-46" value="" style="edgeStyle=orthogonalEdgeStyle;rounded=0;orthogonalLoop=1;jettySize=auto;html=1;" edge="1" parent="1" source="S0zC9xOgUq6jf5N83XIn-43">
          <mxGeometry relative="1" as="geometry">
            <mxPoint x="632" y="976" as="targetPoint" />
          </mxGeometry>
        </mxCell>
        <mxCell id="S0zC9xOgUq6jf5N83XIn-43" value="|&amp;nbsp; &amp;nbsp;| 을 출력한다&lt;br&gt;줄바꿈&lt;br&gt;fcol에 1을 더한다" style="rounded=0;whiteSpace=wrap;html=1;" vertex="1" parent="1">
          <mxGeometry x="572" y="893" width="120" height="60" as="geometry" />
        </mxCell>
        <mxCell id="S0zC9xOgUq6jf5N83XIn-54" style="edgeStyle=orthogonalEdgeStyle;rounded=0;orthogonalLoop=1;jettySize=auto;html=1;exitX=0.5;exitY=1;exitDx=0;exitDy=0;entryX=0.5;entryY=0;entryDx=0;entryDy=0;" edge="1" parent="1" source="S0zC9xOgUq6jf5N83XIn-47" target="S0zC9xOgUq6jf5N83XIn-53">
          <mxGeometry relative="1" as="geometry" />
        </mxCell>
        <mxCell id="S0zC9xOgUq6jf5N83XIn-47" value="fcol이 col 값보다 작은가?" style="rhombus;whiteSpace=wrap;html=1;" vertex="1" parent="1">
          <mxGeometry x="532" y="977" width="200" height="80" as="geometry" />
        </mxCell>
        <mxCell id="S0zC9xOgUq6jf5N83XIn-48" value="" style="endArrow=classic;html=1;rounded=0;exitX=1;exitY=0.5;exitDx=0;exitDy=0;entryX=1;entryY=0.5;entryDx=0;entryDy=0;" edge="1" parent="1" source="S0zC9xOgUq6jf5N83XIn-47" target="S0zC9xOgUq6jf5N83XIn-38">
          <mxGeometry width="50" height="50" relative="1" as="geometry">
            <mxPoint x="732" y="1010" as="sourcePoint" />
            <mxPoint x="782" y="960" as="targetPoint" />
            <Array as="points">
              <mxPoint x="770" y="1017" />
              <mxPoint x="770" y="744" />
            </Array>
          </mxGeometry>
        </mxCell>
        <mxCell id="S0zC9xOgUq6jf5N83XIn-49" value="Yes" style="text;html=1;strokeColor=none;fillColor=none;align=center;verticalAlign=middle;whiteSpace=wrap;rounded=0;" vertex="1" parent="1">
          <mxGeometry x="705" y="984" width="60" height="30" as="geometry" />
        </mxCell>
        <mxCell id="S0zC9xOgUq6jf5N83XIn-50" value="No" style="text;html=1;strokeColor=none;fillColor=none;align=center;verticalAlign=middle;whiteSpace=wrap;rounded=0;" vertex="1" parent="1">
          <mxGeometry x="570" y="1044" width="60" height="30" as="geometry" />
        </mxCell>
        <mxCell id="S0zC9xOgUq6jf5N83XIn-53" value="끝" style="ellipse;whiteSpace=wrap;html=1;" vertex="1" parent="1">
          <mxGeometry x="572" y="1074" width="120" height="80" as="geometry" />
        </mxCell>
      </root>
    </mxGraphModel>
  </diagram>
</mxfile>
